HIERARCHY
ROOT hip
{
  OFFSET 0 0 0
  CHANNELS 6 Xposition Yposition Zposition Zrotation Yrotation Xrotation
  JOINT abdomen
  {
    OFFSET 0 20.6881 -0.73152
    CHANNELS 3 Zrotation Xrotation Yrotation
    JOINT chest
    {
      OFFSET 0 11.7043 -0.48768
      CHANNELS 3 Zrotation Xrotation Yrotation
      JOINT neck
      {
        OFFSET 0 22.1894 -2.19456
        CHANNELS 3 Zrotation Xrotation Yrotation
        JOINT head
        {
          OFFSET -0.24384 7.07133 1.2192
          CHANNELS 3 Zrotation Xrotation Yrotation
          JOINT leftEye
          {
            OFFSET 4.14528 8.04674 8.04672
            CHANNELS 3 Zrotation Xrotation Yrotation
            End Site
            {
              OFFSET 1 0 0
            }
          }
          JOINT rightEye
          {
            OFFSET -3.6576 8.04674 8.04672
            CHANNELS 3 Zrotation Xrotation Yrotation
            End Site
            {
              OFFSET 1 0 0
            }
          }
        }
      }
      JOINT rCollar
      {
        OFFSET -2.68224 19.2634 -4.8768
        CHANNELS 3 Zrotation Xrotation Yrotation
        JOINT rShldr
        {
          OFFSET -8.77824 -1.95073 1.46304
          CHANNELS 3 Zrotation Xrotation Yrotation
          JOINT rForeArm
          {
            OFFSET -28.1742 -1.7115 0.48768
            CHANNELS 3 Zrotation Xrotation Yrotation
            JOINT rHand
            {
              OFFSET -22.5879 0.773209 7.07136
              CHANNELS 3 Zrotation Xrotation Yrotation
              JOINT rThumb1
              {
                OFFSET -1.2192 -0.487915 3.41376
                CHANNELS 3 Zrotation Xrotation Yrotation
                JOINT rThumb2
                {
                  OFFSET -3.37035 -0.52449 3.41376
                  CHANNELS 3 Zrotation Xrotation Yrotation
                  End Site
                  {
                    OFFSET -1.78271 -1.18214 1.43049
                  }
                }
              }
              JOINT rIndex1
              {
                OFFSET -7.75947 0.938293 5.60832
                CHANNELS 3 Zrotation Xrotation Yrotation
                JOINT rIndex2
                {
                  OFFSET -2.54057 -0.884171 1.56538
                  CHANNELS 3 Zrotation Xrotation Yrotation
                  End Site
                  {
                    OFFSET -1.62519 -0.234802 1.16502
                  }
                }
              }
              JOINT rMid1
              {
                OFFSET -8.24714 1.18213 3.41376
                CHANNELS 3 Zrotation Xrotation Yrotation
                JOINT rMid2
                {
                  OFFSET -3.10165 -0.590103 1.0647
                  CHANNELS 3 Zrotation Xrotation Yrotation
                  End Site
                  {
                    OFFSET -2.48547 -0.328903 0.83742
                  }
                }
              }
              JOINT rRing1
              {
                OFFSET -8.82822 0.546677 1.51678
                CHANNELS 3 Zrotation Xrotation Yrotation
                JOINT rRing2
                {
                  OFFSET -2.60934 -0.819778 -0.0198488
                  CHANNELS 3 Zrotation Xrotation Yrotation
                  End Site
                  {
                    OFFSET -2.33842 -0.294052 0.168128
                  }
                }
              }
              JOINT rPinky1
              {
                OFFSET -8.27202 -0.0477905 -0.4584
                CHANNELS 3 Zrotation Xrotation Yrotation
                JOINT rPinky2
                {
                  OFFSET -1.82734 -0.647385 -0.700984
                  CHANNELS 3 Zrotation Xrotation Yrotation
                  End Site
                  {
                    OFFSET -1.69225 -0.51767 -0.607171
                  }
                }
              }
            }
          }
        }
      }
      JOINT lCollar
      {
        OFFSET 2.68224 19.2634 -4.8768
        CHANNELS 3 Zrotation Xrotation Yrotation
        JOINT lShldr
        {
          OFFSET 8.77824 -1.95073 1.46304
          CHANNELS 3 Zrotation Xrotation Yrotation
          JOINT lForeArm
          {
            OFFSET 28.1742 -1.7115 0.48768
            CHANNELS 3 Zrotation Xrotation Yrotation
            JOINT lHand
            {
              OFFSET 22.5879 0.773209 7.07136
              CHANNELS 3 Zrotation Xrotation Yrotation
              JOINT lThumb1
              {
                OFFSET 1.2192 -0.487915 3.41376
                CHANNELS 3 Zrotation Xrotation Yrotation
                JOINT lThumb2
                {
                  OFFSET 3.37035 -0.52449 3.41376
                  CHANNELS 3 Zrotation Xrotation Yrotation
                  End Site
                  {
                    OFFSET 1.78271 -1.18214 1.43049
                  }
                }
              }
              JOINT lIndex1
              {
                OFFSET 7.75947 0.938293 5.60832
                CHANNELS 3 Zrotation Xrotation Yrotation
                JOINT lIndex2
                {
                  OFFSET 2.54057 -0.884171 1.56538
                  CHANNELS 3 Zrotation Xrotation Yrotation
                  End Site
                  {
                    OFFSET 1.62519 -0.234802 1.16502
                  }
                }
              }
              JOINT lMid1
              {
                OFFSET 8.24714 1.18213 3.41376
                CHANNELS 3 Zrotation Xrotation Yrotation
                JOINT lMid2
                {
                  OFFSET 3.10165 -0.590103 1.0647
                  CHANNELS 3 Zrotation Xrotation Yrotation
                  End Site
                  {
                    OFFSET 2.48547 -0.328903 0.83742
                  }
                }
              }
              JOINT lRing1
              {
                OFFSET 8.82822 0.546677 1.51678
                CHANNELS 3 Zrotation Xrotation Yrotation
                JOINT lRing2
                {
                  OFFSET 2.60934 -0.819778 -0.0198488
                  CHANNELS 3 Zrotation Xrotation Yrotation
                  End Site
                  {
                    OFFSET 2.33842 -0.294052 0.168128
                  }
                }
              }
              JOINT lPinky1
              {
                OFFSET 8.27202 -0.0477905 -0.4584
                CHANNELS 3 Zrotation Xrotation Yrotation
                JOINT lPinky2
                {
                  OFFSET 1.82734 -0.647385 -0.700984
                  CHANNELS 3 Zrotation Xrotation Yrotation
                  End Site
                  {
                    OFFSET 1.69225 -0.51767 -0.607171
                  }
                }
              }
            }
          }
        }
      }
    }
  }
  JOINT rButtock
  {
    OFFSET -8.77824 4.35084 1.2192
    CHANNELS 3 Zrotation Xrotation Yrotation
    JOINT rThigh
    {
      OFFSET 0 -1.70687 -2.19456
      CHANNELS 3 Zrotation Xrotation Yrotation
      JOINT rShin
      {
        OFFSET 0 -36.8199 0.73152
        CHANNELS 3 Zrotation Xrotation Yrotation
        JOINT rFoot
        {
          OFFSET 0.73152 -45.1104 -5.12064
          CHANNELS 3 Zrotation Xrotation Yrotation
          End Site
          {
            OFFSET -1.1221 -3.69964 12.103
          }
        }
      }
    }
  }
  JOINT lButtock
  {
    OFFSET 8.77824 4.35084 1.2192
    CHANNELS 3 Zrotation Xrotation Yrotation
    JOINT lThigh
    {
      OFFSET 0 -1.70687 -2.19456
      CHANNELS 3 Zrotation Xrotation Yrotation
      JOINT lShin
      {
        OFFSET 0 -36.8199 0.73152
        CHANNELS 3 Zrotation Xrotation Yrotation
        JOINT lFoot
        {
          OFFSET -0.73152 -45.1104 -5.12064
          CHANNELS 3 Zrotation Xrotation Yrotation
          End Site
          {
            OFFSET 1.1221 -3.69964 12.103
          }
        }
      }
    }
  }
}
MOTION
Frames:	9
Frame Time:	0.00833333
-4.07517 85.1103 -146.166 0.0 0.0 0.0 0.323379 -0.00164675 0.00924286 0.0892413 -0.00254732 0.0154609 3.03072e-15 0.0 7.45442e-17 9.08819e-15 3.18055e-15 2.23633e-16 -0.0 0.0 0.0 -0.0 0.0 0.0 1.53927e-15 -6.7944e-18 1.98785e-16 3.29828e-14 -1.92573e-16 1.78906e-15 5.42036e-13 -1.67377e-13 -6.36111e-15 6.19563e-12 1.39323e-13 1.81292e-13 1.46133e-11 -5.99602e-14 3.94389e-13 2.52389e-11 -1.01778e-13 6.78253e-13 1.4617e-11 -5.80451e-14 3.78486e-13 7.73091 5.47488 0.417314 1.46134e-11 -6.03311e-14 3.97569e-13 2.90554 0.965183 0.102902 1.46217e-11 -5.96354e-14 3.93594e-13 10.2786 0.731801 0.0259123 1.46055e-11 -5.60573e-14 4.0075e-13 2.22167 -0.733487 -0.20892 1.4426e-15 -7.18265e-18 -9.93923e-17 2.94545e-14 -1.92573e-16 0.0 5.41539e-13 1.5704e-13 2.22639e-14 6.19557e-12 -1.89268e-13 1.65389e-13 1.46159e-11 -7.07301e-14 3.94389e-13 2.52461e-11 -1.20861e-13 6.84614e-13 1.46154e-11 -7.11649e-14 3.97569e-13 -7.73091 5.47488 -0.417314 1.46148e-11 -7.08667e-14 3.94389e-13 -2.90554 0.965183 -0.102902 1.46076e-11 -7.0668e-14 3.95184e-13 -10.2786 0.731801 -0.0259123 1.46232e-11 -6.95746e-14 3.88028e-13 -2.22167 -0.733487 0.20892 -2.03217e-16 0.0 -3.88251e-19 0.740006 -3.92203 -0.0606407 -0.00350567 1.55188 -0.0277784 -0.496453 2.36987 0.10482 2.03217e-16 0.0 3.88251e-19 -0.247545 -2.6651 0.0295782 0.00709452 -0.724818 0.0619323 0.492133 3.38959 -0.124997
-4.07331 81.2969 -148.68 -1.8475 1.1168 3.2466 -2.66597 6.07254 0.149345 0.0302442 -1.81286 -0.231278 -0.281594 3.76715 0.172449 0.311298 -13.2029 0.490439 -0.0 0.0 0.0 -0.0 0.0 0.0 -3.68827e-14 3.59265e-14 -4.80228e-15 19.5333 10.982 -2.42083 -18.9437 -16.6004 15.1471 0.00048102 0.534645 0.0751324 -3.92035e-11 -3.11469e-10 2.80751e-10 -6.72037e-11 -5.39055e-10 4.85026e-10 -3.91994e-11 -3.11469e-10 2.80739e-10 7.73091 5.47488 0.417314 -3.92034e-11 -3.11468e-10 2.80751e-10 2.90554 0.965183 0.102902 -3.91989e-11 -3.1147e-10 2.80752e-10 10.2786 0.731801 0.0259123 -3.92122e-11 -3.11466e-10 2.8076e-10 2.22167 -0.733487 -0.20892 -3.6969e-14 3.59239e-14 -5.07095e-15 -19.6982 10.5741 -1.60315 26.484 -24.1396 -13.9327 -0.156344 -8.79156 1.18372 -1.35492e-10 -3.21736e-10 -1.38989e-10 -2.31481e-10 -5.95911e-10 -2.41874e-10 -1.35493e-10 -3.21742e-10 -1.38982e-10 -7.73091 5.47488 -0.417314 -1.35492e-10 -3.21738e-10 -1.38985e-10 -2.90554 0.965183 -0.102902 -1.35499e-10 -3.21743e-10 -1.38986e-10 -10.2786 0.731801 -0.0259123 -1.35487e-10 -3.21731e-10 -1.38993e-10 -2.22167 -0.733487 0.20892 -2.03217e-16 0.0 -3.88251e-19 -0.903217 -10.3059 -0.79307 -0.266926 28.9057 0.42956 -0.394882 12.6146 -1.76646 2.03217e-16 0.0 3.88251e-19 -2.71063 -10.8336 -0.169739 0.263081 12.6237 0.124864 0.280775 -0.819314 -0.735214
-3.74263 80.9891 -146.205 -0.0891 1.6963 2.9676 -5.8464 12.5027 0.32687 -0.0516526 -3.72099 -0.487133 -0.606972 7.75981 0.349084 0.930768 -27.1567 1.09472 -0.0 0.0 0.0 -0.0 0.0 0.0 -8.2855e-14 7.83207e-14 -1.19612e-14 41.2209 22.6006 -5.23309 -28.6904 -30.1442 35.1168 -0.000587378 1.07427 0.15099 -1.42146e-10 -6.84169e-10 6.9077e-10 -2.44279e-10 -1.18481e-09 1.19365e-09 -1.42142e-10 -6.84172e-10 6.90763e-10 7.73091 5.47488 0.417314 -1.42146e-10 -6.84167e-10 6.90768e-10 2.90554 0.965183 0.102902 -1.42145e-10 -6.84172e-10 6.90775e-10 10.2786 0.731801 0.0259123 -1.42156e-10 -6.84167e-10 6.90783e-10 2.22167 -0.733487 -0.20892 -8.29307e-14 7.83154e-14 -1.21973e-14 -39.8876 21.7488 -3.33958 37.8902 -44.2451 -37.9039 0.0921378 -18.0902 2.53386 -3.29492e-10 -6.87666e-10 -3.41808e-10 -5.62751e-10 -1.28135e-09 -5.94661e-10 -3.29494e-10 -6.87679e-10 -3.41797e-10 -7.73091 5.47488 -0.417314 -3.29492e-10 -6.8767e-10 -3.418e-10 -2.90554 0.965183 -0.102902 -3.29497e-10 -6.87681e-10 -3.41804e-10 -10.2786 0.731801 -0.0259123 -3.29489e-10 -6.87657e-10 -3.4181e-10 -2.22167 -0.733487 0.20892 -2.03217e-16 0.0 -3.88251e-19 -2.81288 -16.8442 -1.60235 -1.39248 57.7368 1.50297 0.509202 23.4854 -4.0013 2.03217e-16 0.0 3.88251e-19 -5.36932 -19.5687 -0.408338 0.503606 26.7404 0.214579 -0.0455912 -5.21374 -1.39
-3.4808 80.5174 -143.605 1.3947 0.7924 3.1569 -8.73784 18.2204 0.449577 -0.134702 -5.4331 -0.727678 -0.913958 11.301 0.526437 1.78298 -39.5953 1.85906 -0.0 0.0 0.0 -0.0 0.0 0.0 -1.13726e-13 1.07793e-13 -1.48044e-14 61.8192 32.6877 -8.48009 -29.2335 -34.5804 56.734 -0.00276484 1.60392 0.225476 -1.46837e-10 -9.34286e-10 8.41463e-10 -2.52089e-10 -1.61696e-09 1.45372e-09 -1.46832e-10 -9.34292e-10 8.41459e-10 7.73091 5.47488 0.417314 -1.46837e-10 -9.34284e-10 8.41458e-10 2.90554 0.965183 0.102902 -1.4684e-10 -9.34291e-10 8.41469e-10 10.2786 0.731801 0.0259123 -1.46847e-10 -9.34286e-10 8.41478e-10 2.22167 -0.733487 -0.20892 -1.13792e-13 1.07786e-13 -1.50141e-14 -57.0593 31.614 -5.554 31.2557 -49.2875 -71.0052 0.727093 -26.3269 3.91615 -4.35708e-10 -9.65066e-10 -4.17755e-10 -7.44937e-10 -1.78749e-09 -7.26992e-10 -4.3571e-10 -9.65084e-10 -4.1774e-10 -7.73091 5.47488 -0.417314 -4.35707e-10 -9.65072e-10 -4.17743e-10 -2.90554 0.965183 -0.102902 -4.35712e-10 -9.65088e-10 -4.17749e-10 -10.2786 0.731801 -0.0259123 -4.35707e-10 -9.65054e-10 -4.17755e-10 -2.22167 -0.733487 0.20892 -2.03217e-16 0.0 -3.88251e-19 -4.71772 -23.0582 -2.41268 -10.6291 83.507 10.5257 2.14299 32.9567 -6.41681 2.03217e-16 0.0 3.88251e-19 -7.82537 -27.1694 -0.628596 0.660527 39.3204 0.312408 -0.413644 -9.2319 -1.98154
-3.42574 80.2723 -141.087 1.7325 0.4085 3.3546 -10.8133 22.158 0.408371 -0.189455 -6.65548 -0.927356 -1.13064 13.7139 0.697794 2.61526 -48.2563 2.69727 -0.0 0.0 0.0 -0.0 0.0 0.0 -1.06846e-13 1.04961e-13 -6.85807e-15 77.367 39.1615 -11.6945 -28.2259 -32.1945 70.7672 -0.00545653 2.10867 0.296489 9.40999e-11 -8.77948e-10 3.43837e-10 1.63268e-10 -1.5151e-09 5.92411e-10 9.41047e-11 -8.77954e-10 3.43834e-10 7.73091 5.47488 0.417314 9.40999e-11 -8.77945e-10 3.43831e-10 2.90554 0.965183 0.102902 9.40951e-11 -8.77953e-10 3.43844e-10 10.2786 0.731801 0.0259123 9.4089e-11 -8.77947e-10 3.43853e-10 2.22167 -0.733487 -0.20892 -1.06904e-13 1.04955e-13 -7.05686e-15 -67.8831 38.2543 -8.42267 27.1619 -43.5664 -90.5891 1.44085 -31.9549 5.02934 -3.22461e-10 -1.02114e-09 -1.76521e-10 -5.54415e-10 -1.84537e-09 -3.08187e-10 -3.22464e-10 -1.02116e-09 -1.76505e-10 -7.73091 5.47488 -0.417314 -3.22459e-10 -1.02115e-09 -1.76508e-10 -2.90554 0.965183 -0.102902 -3.22465e-10 -1.02117e-09 -1.76515e-10 -10.2786 0.731801 -0.0259123 -3.22461e-10 -1.02113e-09 -1.76521e-10 -2.22167 -0.733487 0.20892 -2.03217e-16 0.0 -3.88251e-19 -6.27432 -28.4733 -3.11558 -173.412 77.8532 173.078 3.77612 39.0752 -8.39423 2.03217e-16 0.0 3.88251e-19 -9.61346 -31.9354 -0.736274 0.71841 48.0587 0.362682 -0.696279 -12.3144 -2.38871
-3.51383 80.0163 -138.545 1.3664 0.1192 3.777 -11.6952 23.6117 0.150425 -0.212049 -7.17531 -1.06106 -1.18433 14.5285 0.846934 2.92656 -51.661 3.24129 -0.0 0.0 0.0 -0.0 0.0 0.0 -3.43848e-14 4.47527e-14 2.18543e-14 84.3169 40.6827 -13.7805 -28.1266 -30.0036 74.9959 -0.00834155 2.62216 0.368765 8.19237e-10 -2.63993e-10 -1.39743e-09 1.41285e-09 -4.4079e-10 -2.42014e-09 8.19242e-10 -2.63997e-10 -1.39744e-09 7.73091 5.47488 0.417314 8.19238e-10 -2.6399e-10 -1.39744e-09 2.90554 0.965183 0.102902 8.19233e-10 -2.63997e-10 -1.39743e-09 10.2786 0.731801 0.0259123 8.19226e-10 -2.63992e-10 -1.39742e-09 2.22167 -0.733487 -0.20892 -3.44389e-14 4.47509e-14 2.16435e-14 -70.5301 40.4031 -11.8251 27.1936 -39.9072 -95.8068 1.76962 -33.9636 5.47537 2.01607e-10 -7.12035e-10 6.73848e-10 3.3342e-10 -1.14752e-09 1.16907e-09 2.01604e-10 -7.12052e-10 6.73862e-10 -7.73091 5.47488 -0.417314 2.0161e-10 -7.12049e-10 6.73859e-10 -2.90554 0.965183 -0.102902 2.01602e-10 -7.12057e-10 6.73852e-10 -10.2786 0.731801 -0.0259123 2.01608e-10 -7.12025e-10 6.73846e-10 -2.22167 -0.733487 0.20892 -2.03217e-16 0.0 -3.88251e-19 -7.18885 -32.9262 -3.64831 -175.91 69.6036 175.486 4.30571 40.5944 -9.03236 2.03217e-16 0.0 3.88251e-19 -10.3703 -32.8134 -0.627966 0.719334 51.5497 0.278924 -0.773185 -14.2559 -2.50056
-3.53921 79.8251 -135.983 1.2381 0.093 4.1424 -11.732 23.29 -0.262055 -0.206339 -7.19423 -1.14728 -1.11354 14.2024 0.977969 2.65341 -51.3162 3.39156 -0.0 0.0 0.0 -0.0 0.0 0.0 8.43137e-14 -5.5861e-14 6.51299e-14 84.5676 38.7652 -14.659 -28.0721 -29.868 73.7527 -0.0117668 3.13983 0.44169 1.88355e-09 7.42137e-10 -4.01102e-09 3.2468e-09 1.31741e-09 -6.9416e-09 1.88356e-09 7.42135e-10 -4.01104e-09 7.73091 5.47488 0.417314 1.88355e-09 7.42139e-10 -4.01103e-09 2.90554 0.965183 0.102902 1.88355e-09 7.42134e-10 -4.01102e-09 10.2786 0.731801 0.0259123 1.88354e-09 7.42139e-10 -4.01102e-09 2.22167 -0.733487 -0.20892 8.42613e-14 -5.58554e-14 6.48908e-14 -67.9053 39.3404 -15.198 27.169 -40.2743 -95.1474 1.69039 -33.3989 5.35365 1.01419e-09 -1.44721e-10 1.95145e-09 1.71098e-09 8.40399e-11 3.38869e-09 1.01418e-09 -1.4473e-10 1.95146e-09 -7.73091 5.47488 -0.417314 1.01419e-09 -1.44741e-10 1.95146e-09 -2.90554 0.965183 -0.102902 1.01418e-09 -1.44735e-10 1.95145e-09 -10.2786 0.731801 -0.0259123 1.01419e-09 -1.44716e-10 1.95145e-09 -2.22167 -0.733487 0.20892 -2.03217e-16 0.0 -3.88251e-19 -7.61288 -36.687 -4.04599 -176.024 68.6021 175.659 3.79078 38.862 -8.51661 2.03217e-16 0.0 3.88251e-19 -10.3968 -30.9098 -0.367144 0.690417 51.2861 0.0875256 -0.676704 -15.3757 -2.39407
-3.46946 79.6964 -133.425 1.5439 0.2145 4.408 -11.469 22.2431 -0.776919 -0.153765 -7.04027 -1.22542 -1.01248 13.4503 1.11348 2.1397 -49.44 3.39997 -0.0 0.0 0.0 -0.0 0.0 0.0 2.01142e-13 -1.53195e-13 1.05174e-13 82.0514 35.646 -15.084 -28.0213 -30.4426 70.3703 -0.0154906 3.58935 0.505093 2.85902e-09 1.69941e-09 -6.43594e-09 4.92763e-09 2.98946e-09 -1.11366e-08 2.85902e-09 1.69941e-09 -6.43596e-09 7.73091 5.47488 0.417314 2.85902e-09 1.69941e-09 -6.43595e-09 2.90554 0.965183 0.102902 2.85902e-09 1.69941e-09 -6.43594e-09 10.2786 0.731801 0.0259123 2.85901e-09 1.69942e-09 -6.43594e-09 2.22167 -0.733487 -0.20892 2.01091e-13 -1.53182e-13 1.04902e-13 -63.7365 37.0076 -18.0506 27.1182 -42.2698 -92.1992 1.45855 -31.8098 5.01325 1.77645e-09 4.37357e-10 3.13582e-09 3.00359e-09 1.32402e-09 5.4463e-09 1.77645e-09 4.37355e-10 3.13583e-09 -7.73091 5.47488 -0.417314 1.77646e-09 4.37332e-10 3.13582e-09 -2.90554 0.965183 -0.102902 1.77644e-09 4.37351e-10 3.13582e-09 -10.2786 0.731801 -0.0259123 1.77646e-09 4.37356e-10 3.13581e-09 -2.22167 -0.733487 0.20892 -2.03217e-16 0.0 -3.88251e-19 -7.82785 -39.935 -4.31304 -175.532 70.865 175.295 2.93992 35.8626 -7.55995 2.03217e-16 0.0 3.88251e-19 -10.1918 -27.7661 -0.081713 0.624611 49.3113 -0.127113 -0.502448 -15.9028 -2.22322
-3.36465 79.727 -130.805 2.1 0.452 4.5617 -11.4225 21.5216 -1.35347 -0.0380786 -7.04136 -1.33521 -0.981726 12.9867 1.27748 1.78183 -48.2479 3.56082 -0.0 0.0 0.0 -0.0 0.0 0.0 2.67994e-13 -2.03564e-13 1.24191e-13 80.8097 33.5155 -15.8214 -27.9967 -30.5925 68.195 -0.0186757 3.89843 0.548744 3.31763e-09 2.16681e-09 -7.61119e-09 5.71783e-09 3.80533e-09 -1.31696e-08 3.31763e-09 2.16681e-09 -7.61121e-09 7.73091 5.47488 0.417314 3.31763e-09 2.16681e-09 -7.6112e-09 2.90554 0.965183 0.102902 3.31763e-09 2.16681e-09 -7.6112e-09 10.2786 0.731801 0.0259123 3.31762e-09 2.16681e-09 -7.61119e-09 2.22167 -0.733487 -0.20892 2.67946e-13 -2.03547e-13 1.23893e-13 -61.144 35.3054 -20.2699 27.2031 -43.4466 -90.3549 1.31922 -30.7464 4.79558 2.14958e-09 7.90753e-10 3.70648e-09 3.63658e-09 2.04715e-09 6.43749e-09 2.14957e-09 7.90755e-10 3.70648e-09 -7.73091 5.47488 -0.417314 2.14958e-09 7.90727e-10 3.70647e-09 -2.90554 0.965183 -0.102902 2.14956e-09 7.90752e-10 3.70647e-09 -10.2786 0.731801 -0.0259123 2.14958e-09 7.90748e-10 3.70646e-09 -2.22167 -0.733487 0.20892 -2.03217e-16 0.0 -3.88251e-19 -8.1322 -42.8483 -4.46263 -175.159 72.3969 175.028 2.33078 33.5947 -6.76374 2.03217e-16 0.0 3.88251e-19 -10.2082 -24.9243 0.12632 0.552502 47.6695 -0.309711 -0.358429 -16.066 -2.14656
